<?xml version="1.0" encoding="utf-8"?>
<!-- Generator: Adobe Illustrator 28.0.0, SVG Export Plug-In . SVG Version: 6.00 Build 0)  -->
<svg version="1.1" id="Layer_1" xmlns="http://www.w3.org/2000/svg" xmlns:xlink="http://www.w3.org/1999/xlink" x="0px" y="0px"
	 viewBox="0 0 292.24 292.24" enable-background="new 0 0 292.24 292.24" xml:space="preserve">
<g>
	<polygon points="146.12,0 141.16,0.08 136.21,0.33 131.27,0.75 126.34,1.34 121.44,2.09 116.57,3.01 111.73,4.1 106.93,5.35 
		102.18,6.76 97.48,8.33 92.83,10.06 88.24,11.95 83.72,13.99 79.28,16.18 74.91,18.52 70.62,21.01 66.42,23.65 62.31,26.42 
		58.29,29.33 54.38,32.38 50.57,35.56 46.88,38.86 43.3,42.29 39.83,45.84 36.49,49.51 33.28,53.28 30.19,57.16 27.24,61.15 
		24.42,65.23 21.75,69.41 19.22,73.67 16.83,78.02 14.6,82.44 12.51,86.94 10.58,91.51 8.81,96.14 7.19,100.83 5.73,105.57 
		4.44,110.35 3.3,115.18 2.34,120.04 1.53,124.94 0.9,129.85 0.43,134.79 0.13,139.74 0,144.7 0.03,149.66 0.24,154.61 0.61,159.56 
		1.15,164.49 1.85,169.39 2.73,174.27 3.76,179.12 4.97,183.93 6.33,188.7 7.86,193.42 9.54,198.08 11.38,202.69 13.38,207.23 
		15.53,211.7 17.83,216.09 20.28,220.4 22.87,224.63 25.6,228.76 28.48,232.81 31.48,236.75 34.62,240.59 37.89,244.31 
		41.29,247.93 44.8,251.43 48.43,254.8 52.18,258.06 56.03,261.18 59.98,264.17 64.04,267.02 68.19,269.74 72.43,272.31 
		76.75,274.74 81.15,277.02 85.63,279.15 90.18,281.12 94.79,282.94 99.47,284.61 104.19,286.11 108.96,287.45 113.78,288.63 
		118.63,289.65 123.52,290.5 128.43,291.18 133.36,291.7 138.31,292.04 143.27,292.23 148.22,292.24 153.18,292.08 158.13,291.76 
		163.06,291.27 162.48,286.26 161.89,281.26 161.31,276.25 160.73,271.25 160.14,266.24 159.56,261.24 158.97,256.23 158.39,251.23 
		157.8,246.22 157.22,241.22 156.64,236.21 156.05,231.21 155.47,226.2 154.88,221.2 154.3,216.19 153.71,211.19 153.13,206.18 
		152.55,201.18 151.96,196.17 151.38,191.17 150.79,186.16 150.21,181.16 149.62,176.15 149.04,171.15 148.46,166.14 147.87,161.14 
		147.29,156.13 146.7,151.13 146.12,146.12 146.12,141.09 146.12,136.05 146.12,131.01 146.12,125.97 146.12,120.93 146.12,115.89 
		146.12,110.85 146.12,105.81 146.12,100.77 146.12,95.74 146.12,90.7 146.12,85.66 146.12,80.62 146.12,75.58 146.12,70.54 
		146.12,65.5 146.12,60.46 146.12,55.42 146.12,50.39 146.12,45.35 146.12,40.31 146.12,35.27 146.12,30.23 146.12,25.19 
		146.12,20.15 146.12,15.11 146.12,10.07 146.12,5.03 	"/>
	<polygon fill="#0000FF" points="163.06,291.27 167.99,290.61 172.9,289.78 177.77,288.78 182.61,287.62 187.4,286.3 192.15,284.82 
		196.84,283.17 201.48,281.36 206.05,279.4 210.55,277.28 214.97,275.01 219.32,272.6 223.58,270.03 227.75,267.32 231.83,264.48 
		235.81,261.49 239.68,258.37 243.45,255.12 247.1,251.75 250.64,248.25 254.05,244.63 257.34,240.9 260.51,237.06 263.53,233.12 
		266.43,229.07 269.18,224.93 271.79,220.69 274.26,216.37 276.57,211.97 278.74,207.49 280.75,202.94 282.6,198.33 284.3,193.65 
		285.84,188.92 287.22,184.14 288.43,179.32 289.47,174.46 290.36,169.56 291.07,164.64 291.62,159.7 291.99,154.74 292.2,149.77 
		292.24,144.79 292.11,139.82 291.81,134.86 291.34,129.9 290.71,124.97 289.91,120.06 288.93,115.19 287.8,110.34 286.5,105.54 
		285.04,100.79 283.41,96.09 281.63,91.44 279.69,86.86 277.6,82.35 275.35,77.91 272.95,73.55 270.41,69.28 267.72,65.09 264.9,61 
		261.93,57.01 258.83,53.12 255.6,49.34 252.24,45.67 248.76,42.11 245.16,38.68 241.45,35.37 237.62,32.19 233.69,29.14 
		229.66,26.23 225.53,23.46 221.31,20.83 217,18.34 212.61,16 208.15,13.81 203.61,11.78 199,9.9 194.34,8.18 189.61,6.62 
		184.84,5.22 180.02,3.98 175.17,2.91 170.28,2.01 165.36,1.27 160.42,0.7 159.92,5.71 159.43,10.73 158.94,15.74 158.44,20.76 
		157.95,25.77 157.46,30.79 156.96,35.8 156.47,40.82 155.98,45.83 155.49,50.84 154.99,55.86 154.5,60.87 154.01,65.89 
		153.51,70.9 153.02,75.92 152.53,80.93 152.03,85.95 151.54,90.96 151.05,95.98 150.56,100.99 150.06,106.01 149.57,111.02 
		149.08,116.04 148.58,121.05 148.09,126.07 147.6,131.08 147.1,136.1 146.61,141.11 146.12,146.12 146.7,151.13 147.29,156.13 
		147.87,161.14 148.46,166.14 149.04,171.15 149.62,176.15 150.21,181.16 150.79,186.16 151.38,191.17 151.96,196.17 152.55,201.18 
		153.13,206.18 153.71,211.19 154.3,216.19 154.88,221.2 155.47,226.2 156.05,231.21 156.64,236.21 157.22,241.22 157.8,246.22 
		158.39,251.23 158.97,256.23 159.56,261.24 160.14,266.24 160.73,271.25 161.31,276.25 161.89,281.26 162.48,286.26 	"/>
	<polygon fill="#FFFFFF" points="160.42,0.7 153.56,0.19 153.3,5.22 153.05,10.25 152.79,15.28 152.53,20.32 152.28,25.35 
		152.02,30.38 151.76,35.41 151.51,40.44 151.25,45.48 150.99,50.51 150.74,55.54 150.48,60.57 150.22,65.61 149.97,70.64 
		149.71,75.67 149.45,80.7 149.2,85.74 148.94,90.77 148.68,95.8 148.43,100.83 148.17,105.87 147.91,110.9 147.66,115.93 
		147.4,120.96 147.15,126 146.89,131.03 146.63,136.06 146.38,141.09 146.12,146.12 146.61,141.11 147.1,136.1 147.6,131.08 
		148.09,126.07 148.58,121.05 149.08,116.04 149.57,111.02 150.06,106.01 150.56,100.99 151.05,95.98 151.54,90.96 152.03,85.95 
		152.53,80.93 153.02,75.92 153.51,70.9 154.01,65.89 154.5,60.87 154.99,55.86 155.49,50.84 155.98,45.83 156.47,40.82 
		156.96,35.8 157.46,30.79 157.95,25.77 158.44,20.76 158.94,15.74 159.43,10.73 159.92,5.71 	"/>
	<polygon fill="#FFFFFF" points="153.56,0.19 149.04,0.03 148.94,5.06 148.84,10.1 148.74,15.14 148.64,20.18 148.54,25.21 
		148.44,30.25 148.34,35.29 148.24,40.33 148.13,45.37 148.03,50.4 147.93,55.44 147.83,60.48 147.73,65.52 147.63,70.56 
		147.53,75.59 147.43,80.63 147.33,85.67 147.23,90.71 147.13,95.75 147.03,100.78 146.93,105.82 146.82,110.86 146.72,115.9 
		146.62,120.94 146.52,125.97 146.42,131.01 146.32,136.05 146.22,141.09 146.12,146.12 146.38,141.09 146.63,136.06 146.89,131.03 
		147.15,126 147.4,120.96 147.66,115.93 147.91,110.9 148.17,105.87 148.43,100.83 148.68,95.8 148.94,90.77 149.2,85.74 
		149.45,80.7 149.71,75.67 149.97,70.64 150.22,65.61 150.48,60.57 150.74,55.54 150.99,50.51 151.25,45.48 151.51,40.44 
		151.76,35.41 152.02,30.38 152.28,25.35 152.53,20.32 152.79,15.28 153.05,10.25 153.3,5.22 	"/>
	<polygon fill="#FFFFFF" points="149.04,0.03 146.89,0 146.86,5.04 146.84,10.08 146.81,15.11 146.78,20.15 146.76,25.19 
		146.73,30.23 146.7,35.27 146.68,40.31 146.65,45.35 146.62,50.39 146.6,55.43 146.57,60.46 146.54,65.5 146.52,70.54 
		146.49,75.58 146.46,80.62 146.44,85.66 146.41,90.7 146.38,95.74 146.36,100.78 146.33,105.81 146.3,110.85 146.28,115.89 
		146.25,120.93 146.23,125.97 146.2,131.01 146.17,136.05 146.15,141.09 146.12,146.12 146.22,141.09 146.32,136.05 146.42,131.01 
		146.52,125.97 146.62,120.94 146.72,115.9 146.82,110.86 146.93,105.82 147.03,100.78 147.13,95.75 147.23,90.71 147.33,85.67 
		147.43,80.63 147.53,75.59 147.63,70.56 147.73,65.52 147.83,60.48 147.93,55.44 148.03,50.4 148.13,45.37 148.24,40.33 
		148.34,35.29 148.44,30.25 148.54,25.21 148.64,20.18 148.74,15.14 148.84,10.1 148.94,5.06 	"/>
	<polygon fill="#FFFFFF" points="146.89,0 146.47,0 146.46,5.04 146.45,10.07 146.44,15.11 146.42,20.15 146.41,25.19 146.4,30.23 
		146.39,35.27 146.38,40.31 146.36,45.35 146.35,50.39 146.34,55.42 146.33,60.46 146.31,65.5 146.3,70.54 146.29,75.58 
		146.28,80.62 146.27,85.66 146.25,90.7 146.24,95.74 146.23,100.77 146.22,105.81 146.2,110.85 146.19,115.89 146.18,120.93 
		146.17,125.97 146.16,131.01 146.14,136.05 146.13,141.09 146.12,146.12 146.15,141.09 146.17,136.05 146.2,131.01 146.23,125.97 
		146.25,120.93 146.28,115.89 146.3,110.85 146.33,105.81 146.36,100.78 146.38,95.74 146.41,90.7 146.44,85.66 146.46,80.62 
		146.49,75.58 146.52,70.54 146.54,65.5 146.57,60.46 146.6,55.43 146.62,50.39 146.65,45.35 146.68,40.31 146.7,35.27 
		146.73,30.23 146.76,25.19 146.78,20.15 146.81,15.11 146.84,10.08 146.86,5.04 	"/>
	<polygon fill="#FFFFFF" points="146.47,0 146.18,0 146.18,5.03 146.18,10.07 146.18,15.11 146.18,20.15 146.17,25.19 146.17,30.23 
		146.17,35.27 146.17,40.31 146.16,45.35 146.16,50.39 146.16,55.42 146.16,60.46 146.16,65.5 146.15,70.54 146.15,75.58 
		146.15,80.62 146.15,85.66 146.14,90.7 146.14,95.74 146.14,100.77 146.14,105.81 146.13,110.85 146.13,115.89 146.13,120.93 
		146.13,125.97 146.13,131.01 146.12,136.05 146.12,141.09 146.12,146.12 146.13,141.09 146.14,136.05 146.16,131.01 146.17,125.97 
		146.18,120.93 146.19,115.89 146.2,110.85 146.22,105.81 146.23,100.77 146.24,95.74 146.25,90.7 146.27,85.66 146.28,80.62 
		146.29,75.58 146.3,70.54 146.31,65.5 146.33,60.46 146.34,55.42 146.35,50.39 146.36,45.35 146.38,40.31 146.39,35.27 
		146.4,30.23 146.41,25.19 146.42,20.15 146.44,15.11 146.45,10.07 146.46,5.04 	"/>
	<polygon fill="#FFFFFF" points="146.18,0 146.15,0 146.15,5.03 146.15,10.07 146.15,15.11 146.15,20.15 146.14,25.19 146.14,30.23 
		146.14,35.27 146.14,40.31 146.14,45.35 146.14,50.39 146.14,55.42 146.14,60.46 146.14,65.5 146.14,70.54 146.13,75.58 
		146.13,80.62 146.13,85.66 146.13,90.7 146.13,95.74 146.13,100.77 146.13,105.81 146.13,110.85 146.13,115.89 146.12,120.93 
		146.12,125.97 146.12,131.01 146.12,136.05 146.12,141.09 146.12,146.12 146.12,141.09 146.12,136.05 146.13,131.01 146.13,125.97 
		146.13,120.93 146.13,115.89 146.13,110.85 146.14,105.81 146.14,100.77 146.14,95.74 146.14,90.7 146.15,85.66 146.15,80.62 
		146.15,75.58 146.15,70.54 146.16,65.5 146.16,60.46 146.16,55.42 146.16,50.39 146.16,45.35 146.17,40.31 146.17,35.27 
		146.17,30.23 146.17,25.19 146.18,20.15 146.18,15.11 146.18,10.07 146.18,5.03 	"/>
	<polygon fill="#FFFFFF" points="146.15,0 146.13,0 146.13,5.03 146.13,10.07 146.13,15.11 146.13,20.15 146.13,25.19 146.13,30.23 
		146.13,35.27 146.13,40.31 146.13,45.35 146.13,50.39 146.13,55.42 146.13,60.46 146.13,65.5 146.13,70.54 146.12,75.58 
		146.12,80.62 146.12,85.66 146.12,90.7 146.12,95.74 146.12,100.77 146.12,105.81 146.12,110.85 146.12,115.89 146.12,120.93 
		146.12,125.97 146.12,131.01 146.12,136.05 146.12,141.09 146.12,146.12 146.12,141.09 146.12,136.05 146.12,131.01 146.12,125.97 
		146.12,120.93 146.13,115.89 146.13,110.85 146.13,105.81 146.13,100.77 146.13,95.74 146.13,90.7 146.13,85.66 146.13,80.62 
		146.13,75.58 146.14,70.54 146.14,65.5 146.14,60.46 146.14,55.42 146.14,50.39 146.14,45.35 146.14,40.31 146.14,35.27 
		146.14,30.23 146.14,25.19 146.15,20.15 146.15,15.11 146.15,10.07 146.15,5.03 	"/>
	<polygon fill="#FFFFFF" points="146.13,0 146.13,0 146.13,5.03 146.13,10.07 146.12,15.11 146.12,20.15 146.12,25.19 146.12,30.23 
		146.12,35.27 146.12,40.31 146.12,45.35 146.12,50.39 146.12,55.42 146.12,60.46 146.12,65.5 146.12,70.54 146.12,75.58 
		146.12,80.62 146.12,85.66 146.12,90.7 146.12,95.74 146.12,100.77 146.12,105.81 146.12,110.85 146.12,115.89 146.12,120.93 
		146.12,125.97 146.12,131.01 146.12,136.05 146.12,141.09 146.12,146.12 146.12,141.09 146.12,136.05 146.12,131.01 146.12,125.97 
		146.12,120.93 146.12,115.89 146.12,110.85 146.12,105.81 146.12,100.77 146.12,95.74 146.12,90.7 146.12,85.66 146.12,80.62 
		146.12,75.58 146.13,70.54 146.13,65.5 146.13,60.46 146.13,55.42 146.13,50.39 146.13,45.35 146.13,40.31 146.13,35.27 
		146.13,30.23 146.13,25.19 146.13,20.15 146.13,15.11 146.13,10.07 146.13,5.03 	"/>
	<polygon fill="#FFFFFF" points="146.13,0 146.12,0 146.12,5.03 146.12,10.07 146.12,15.11 146.12,20.15 146.12,25.19 146.12,30.23 
		146.12,35.27 146.12,40.31 146.12,45.35 146.12,50.39 146.12,55.42 146.12,60.46 146.12,65.5 146.12,70.54 146.12,75.58 
		146.12,80.62 146.12,85.66 146.12,90.7 146.12,95.74 146.12,100.77 146.12,105.81 146.12,110.85 146.12,115.89 146.12,120.93 
		146.12,125.97 146.12,131.01 146.12,136.05 146.12,141.09 146.12,146.12 146.12,141.09 146.12,136.05 146.12,131.01 146.12,125.97 
		146.12,120.93 146.12,115.89 146.12,110.85 146.12,105.81 146.12,100.77 146.12,95.74 146.12,90.7 146.12,85.66 146.12,80.62 
		146.12,75.58 146.12,70.54 146.12,65.5 146.12,60.46 146.12,55.42 146.12,50.39 146.12,45.35 146.12,40.31 146.12,35.27 
		146.12,30.23 146.12,25.19 146.12,20.15 146.12,15.11 146.13,10.07 146.13,5.03 	"/>
	<polygon fill="#FFFFFF" points="146.12,0 146.12,0 146.12,5.03 146.12,10.07 146.12,15.11 146.12,20.15 146.12,25.19 146.12,30.23 
		146.12,35.27 146.12,40.31 146.12,45.35 146.12,50.39 146.12,55.42 146.12,60.46 146.12,65.5 146.12,70.54 146.12,75.58 
		146.12,80.62 146.12,85.66 146.12,90.7 146.12,95.74 146.12,100.77 146.12,105.81 146.12,110.85 146.12,115.89 146.12,120.93 
		146.12,125.97 146.12,131.01 146.12,136.05 146.12,141.09 146.12,146.12 146.12,141.09 146.12,136.05 146.12,131.01 146.12,125.97 
		146.12,120.93 146.12,115.89 146.12,110.85 146.12,105.81 146.12,100.77 146.12,95.74 146.12,90.7 146.12,85.66 146.12,80.62 
		146.12,75.58 146.12,70.54 146.12,65.5 146.12,60.46 146.12,55.42 146.12,50.39 146.12,45.35 146.12,40.31 146.12,35.27 
		146.12,30.23 146.12,25.19 146.12,20.15 146.12,15.11 146.12,10.07 146.12,5.03 	"/>
	<polygon fill="#FFFFFF" points="146.12,0 146.12,0 146.12,5.03 146.12,10.07 146.12,15.11 146.12,20.15 146.12,25.19 146.12,30.23 
		146.12,35.27 146.12,40.31 146.12,45.35 146.12,50.39 146.12,55.42 146.12,60.46 146.12,65.5 146.12,70.54 146.12,75.58 
		146.12,80.62 146.12,85.66 146.12,90.7 146.12,95.74 146.12,100.77 146.12,105.81 146.12,110.85 146.12,115.89 146.12,120.93 
		146.12,125.97 146.12,131.01 146.12,136.05 146.12,141.09 146.12,146.12 146.12,141.09 146.12,136.05 146.12,131.01 146.12,125.97 
		146.12,120.93 146.12,115.89 146.12,110.85 146.12,105.81 146.12,100.77 146.12,95.74 146.12,90.7 146.12,85.66 146.12,80.62 
		146.12,75.58 146.12,70.54 146.12,65.5 146.12,60.46 146.12,55.42 146.12,50.39 146.12,45.35 146.12,40.31 146.12,35.27 
		146.12,30.23 146.12,25.19 146.12,20.15 146.12,15.11 146.12,10.07 146.12,5.03 	"/>
	<polygon fill="#FFFFFF" points="146.12,0 146.12,0 146.12,5.03 146.12,10.07 146.12,15.11 146.12,20.15 146.12,25.19 146.12,30.23 
		146.12,35.27 146.12,40.31 146.12,45.35 146.12,50.39 146.12,55.42 146.12,60.46 146.12,65.5 146.12,70.54 146.12,75.58 
		146.12,80.62 146.12,85.66 146.12,90.7 146.12,95.74 146.12,100.77 146.12,105.81 146.12,110.85 146.12,115.89 146.12,120.93 
		146.12,125.97 146.12,131.01 146.12,136.05 146.12,141.09 146.12,146.12 146.12,141.09 146.12,136.05 146.12,131.01 146.12,125.97 
		146.12,120.93 146.12,115.89 146.12,110.85 146.12,105.81 146.12,100.77 146.12,95.74 146.12,90.7 146.12,85.66 146.12,80.62 
		146.12,75.58 146.12,70.54 146.12,65.5 146.12,60.46 146.12,55.42 146.12,50.39 146.12,45.35 146.12,40.31 146.12,35.27 
		146.12,30.23 146.12,25.19 146.12,20.15 146.12,15.11 146.12,10.07 146.12,5.03 	"/>
	<polygon fill="#FFFFFF" points="146.12,0 146.12,0 146.12,5.03 146.12,10.07 146.12,15.11 146.12,20.15 146.12,25.19 146.12,30.23 
		146.12,35.27 146.12,40.31 146.12,45.35 146.12,50.39 146.12,55.42 146.12,60.46 146.12,65.5 146.12,70.54 146.12,75.58 
		146.12,80.62 146.12,85.66 146.12,90.7 146.12,95.74 146.12,100.77 146.12,105.81 146.12,110.85 146.12,115.89 146.12,120.93 
		146.12,125.97 146.12,131.01 146.12,136.05 146.12,141.09 146.12,146.12 146.12,141.09 146.12,136.05 146.12,131.01 146.12,125.97 
		146.12,120.93 146.12,115.89 146.12,110.85 146.12,105.81 146.12,100.77 146.12,95.74 146.12,90.7 146.12,85.66 146.12,80.62 
		146.12,75.58 146.12,70.54 146.12,65.5 146.12,60.46 146.12,55.42 146.12,50.39 146.12,45.35 146.12,40.31 146.12,35.27 
		146.12,30.23 146.12,25.19 146.12,20.15 146.12,15.11 146.12,10.07 146.12,5.03 	"/>
	<polygon fill="#FFFFFF" points="146.12,0 146.12,0 146.12,5.03 146.12,10.07 146.12,15.11 146.12,20.15 146.12,25.19 146.12,30.23 
		146.12,35.27 146.12,40.31 146.12,45.35 146.12,50.39 146.12,55.42 146.12,60.46 146.12,65.5 146.12,70.54 146.12,75.58 
		146.12,80.62 146.12,85.66 146.12,90.7 146.12,95.74 146.12,100.77 146.12,105.81 146.12,110.85 146.12,115.89 146.12,120.93 
		146.12,125.97 146.12,131.01 146.12,136.05 146.12,141.09 146.12,146.12 146.12,141.09 146.12,136.05 146.12,131.01 146.12,125.97 
		146.12,120.93 146.12,115.89 146.12,110.85 146.12,105.81 146.12,100.77 146.12,95.74 146.12,90.7 146.12,85.66 146.12,80.62 
		146.12,75.58 146.12,70.54 146.12,65.5 146.12,60.46 146.12,55.42 146.12,50.39 146.12,45.35 146.12,40.31 146.12,35.27 
		146.12,30.23 146.12,25.19 146.12,20.15 146.12,15.11 146.12,10.07 146.12,5.03 	"/>
	<polygon fill="#FFFFFF" points="146.12,0 146.12,0 146.12,5.03 146.12,10.07 146.12,15.11 146.12,20.15 146.12,25.19 146.12,30.23 
		146.12,35.27 146.12,40.31 146.12,45.35 146.12,50.39 146.12,55.42 146.12,60.46 146.12,65.5 146.12,70.54 146.12,75.58 
		146.12,80.62 146.12,85.66 146.12,90.7 146.12,95.74 146.12,100.77 146.12,105.81 146.12,110.85 146.12,115.89 146.12,120.93 
		146.12,125.97 146.12,131.01 146.12,136.05 146.12,141.09 146.12,146.12 146.12,141.09 146.12,136.05 146.12,131.01 146.12,125.97 
		146.12,120.93 146.12,115.89 146.12,110.85 146.12,105.81 146.12,100.77 146.12,95.74 146.12,90.7 146.12,85.66 146.12,80.62 
		146.12,75.58 146.12,70.54 146.12,65.5 146.12,60.46 146.12,55.42 146.12,50.39 146.12,45.35 146.12,40.31 146.12,35.27 
		146.12,30.23 146.12,25.19 146.12,20.15 146.12,15.11 146.12,10.07 146.12,5.03 	"/>
	<polygon fill="#FFFFFF" points="146.12,0 146.12,0 146.12,5.03 146.12,10.07 146.12,15.11 146.12,20.15 146.12,25.19 146.12,30.23 
		146.12,35.27 146.12,40.31 146.12,45.35 146.12,50.39 146.12,55.42 146.12,60.46 146.12,65.5 146.12,70.54 146.12,75.58 
		146.12,80.62 146.12,85.66 146.12,90.7 146.12,95.74 146.12,100.77 146.12,105.81 146.12,110.85 146.12,115.89 146.12,120.93 
		146.12,125.97 146.12,131.01 146.12,136.05 146.12,141.09 146.12,146.12 146.12,141.09 146.12,136.05 146.12,131.01 146.12,125.97 
		146.12,120.93 146.12,115.89 146.12,110.85 146.12,105.81 146.12,100.77 146.12,95.74 146.12,90.7 146.12,85.66 146.12,80.62 
		146.12,75.58 146.12,70.54 146.12,65.5 146.12,60.46 146.12,55.42 146.12,50.39 146.12,45.35 146.12,40.31 146.12,35.27 
		146.12,30.23 146.12,25.19 146.12,20.15 146.12,15.11 146.12,10.07 146.12,5.03 	"/>
	<polygon fill="#FFFFFF" points="146.12,0 146.12,0 146.12,5.03 146.12,10.07 146.12,15.11 146.12,20.15 146.12,25.19 146.12,30.23 
		146.12,35.27 146.12,40.31 146.12,45.35 146.12,50.39 146.12,55.42 146.12,60.46 146.12,65.5 146.12,70.54 146.12,75.58 
		146.12,80.62 146.12,85.66 146.12,90.7 146.12,95.74 146.12,100.77 146.12,105.81 146.12,110.85 146.12,115.89 146.12,120.93 
		146.12,125.97 146.12,131.01 146.12,136.05 146.12,141.09 146.12,146.12 146.12,141.09 146.12,136.05 146.12,131.01 146.12,125.97 
		146.12,120.93 146.12,115.89 146.12,110.85 146.12,105.81 146.12,100.77 146.12,95.74 146.12,90.7 146.12,85.66 146.12,80.62 
		146.12,75.58 146.12,70.54 146.12,65.5 146.12,60.46 146.12,55.42 146.12,50.39 146.12,45.35 146.12,40.31 146.12,35.27 
		146.12,30.23 146.12,25.19 146.12,20.15 146.12,15.11 146.12,10.07 146.12,5.03 	"/>
	<polygon fill="#FFFFFF" points="146.12,0 146.12,0 146.12,5.03 146.12,10.07 146.12,15.11 146.12,20.15 146.12,25.19 146.12,30.23 
		146.12,35.27 146.12,40.31 146.12,45.35 146.12,50.39 146.12,55.42 146.12,60.46 146.12,65.5 146.12,70.54 146.12,75.58 
		146.12,80.62 146.12,85.66 146.12,90.7 146.12,95.74 146.12,100.77 146.12,105.81 146.12,110.85 146.12,115.89 146.12,120.93 
		146.12,125.97 146.12,131.01 146.12,136.05 146.12,141.09 146.12,146.12 146.12,141.09 146.12,136.05 146.12,131.01 146.12,125.97 
		146.12,120.93 146.12,115.89 146.12,110.85 146.12,105.81 146.12,100.77 146.12,95.74 146.12,90.7 146.12,85.66 146.12,80.62 
		146.12,75.58 146.12,70.54 146.12,65.5 146.12,60.46 146.12,55.42 146.12,50.39 146.12,45.35 146.12,40.31 146.12,35.27 
		146.12,30.23 146.12,25.19 146.12,20.15 146.12,15.11 146.12,10.07 146.12,5.03 	"/>
	<polygon fill="#FFFFFF" points="146.12,0 146.12,0 146.12,5.03 146.12,10.07 146.12,15.11 146.12,20.15 146.12,25.19 146.12,30.23 
		146.12,35.27 146.12,40.31 146.12,45.35 146.12,50.39 146.12,55.42 146.12,60.46 146.12,65.5 146.12,70.54 146.12,75.58 
		146.12,80.62 146.12,85.66 146.12,90.7 146.12,95.74 146.12,100.77 146.12,105.81 146.12,110.85 146.12,115.89 146.12,120.93 
		146.12,125.97 146.12,131.01 146.12,136.05 146.12,141.09 146.12,146.12 146.12,141.09 146.12,136.05 146.12,131.01 146.12,125.97 
		146.12,120.93 146.12,115.89 146.12,110.85 146.12,105.81 146.12,100.77 146.12,95.74 146.12,90.7 146.12,85.66 146.12,80.62 
		146.12,75.58 146.12,70.54 146.12,65.5 146.12,60.46 146.12,55.42 146.12,50.39 146.12,45.35 146.12,40.31 146.12,35.27 
		146.12,30.23 146.12,25.19 146.12,20.15 146.12,15.11 146.12,10.07 146.12,5.03 	"/>
	<polygon fill="#FFFFFF" points="146.12,0 146.12,0 146.12,5.03 146.12,10.07 146.12,15.11 146.12,20.15 146.12,25.19 146.12,30.23 
		146.12,35.27 146.12,40.31 146.12,45.35 146.12,50.39 146.12,55.42 146.12,60.46 146.12,65.5 146.12,70.54 146.12,75.58 
		146.12,80.62 146.12,85.66 146.12,90.7 146.12,95.74 146.12,100.77 146.12,105.81 146.12,110.85 146.12,115.89 146.12,120.93 
		146.12,125.97 146.12,131.01 146.12,136.05 146.12,141.09 146.12,146.12 146.12,141.09 146.12,136.05 146.12,131.01 146.12,125.97 
		146.12,120.93 146.12,115.89 146.12,110.85 146.12,105.81 146.12,100.77 146.12,95.74 146.12,90.7 146.12,85.66 146.12,80.62 
		146.12,75.58 146.12,70.54 146.12,65.5 146.12,60.46 146.12,55.42 146.12,50.39 146.12,45.35 146.12,40.31 146.12,35.27 
		146.12,30.23 146.12,25.19 146.12,20.15 146.12,15.11 146.12,10.07 146.12,5.03 	"/>
	<polygon fill="#FFFFFF" points="146.12,0 146.12,0 146.12,5.03 146.12,10.07 146.12,15.11 146.12,20.15 146.12,25.19 146.12,30.23 
		146.12,35.27 146.12,40.31 146.12,45.35 146.12,50.39 146.12,55.42 146.12,60.46 146.12,65.5 146.12,70.54 146.12,75.58 
		146.12,80.62 146.12,85.66 146.12,90.7 146.12,95.74 146.12,100.77 146.12,105.81 146.12,110.85 146.12,115.89 146.12,120.93 
		146.12,125.97 146.12,131.01 146.12,136.05 146.12,141.09 146.12,146.12 146.12,141.09 146.12,136.05 146.12,131.01 146.12,125.97 
		146.12,120.93 146.12,115.89 146.12,110.85 146.12,105.81 146.12,100.77 146.12,95.74 146.12,90.7 146.12,85.66 146.12,80.62 
		146.12,75.58 146.12,70.54 146.12,65.5 146.12,60.46 146.12,55.42 146.12,50.39 146.12,45.35 146.12,40.31 146.12,35.27 
		146.12,30.23 146.12,25.19 146.12,20.15 146.12,15.11 146.12,10.07 146.12,5.03 	"/>
	<polygon fill="#FFFFFF" points="146.12,0 146.12,0 146.12,5.03 146.12,10.07 146.12,15.11 146.12,20.15 146.12,25.19 146.12,30.23 
		146.12,35.27 146.12,40.31 146.12,45.35 146.12,50.39 146.12,55.42 146.12,60.46 146.12,65.5 146.12,70.54 146.12,75.58 
		146.12,80.62 146.12,85.66 146.12,90.7 146.12,95.74 146.12,100.77 146.12,105.81 146.12,110.85 146.12,115.89 146.12,120.93 
		146.12,125.97 146.12,131.01 146.12,136.05 146.12,141.09 146.12,146.12 146.12,141.09 146.12,136.05 146.12,131.01 146.12,125.97 
		146.12,120.93 146.12,115.89 146.12,110.85 146.12,105.81 146.12,100.77 146.12,95.74 146.12,90.7 146.12,85.66 146.12,80.62 
		146.12,75.58 146.12,70.54 146.12,65.5 146.12,60.46 146.12,55.42 146.12,50.39 146.12,45.35 146.12,40.31 146.12,35.27 
		146.12,30.23 146.12,25.19 146.12,20.15 146.12,15.11 146.12,10.07 146.12,5.03 	"/>
	<polygon fill="#FFFFFF" points="146.12,0 146.12,0 146.12,5.03 146.12,10.07 146.12,15.11 146.12,20.15 146.12,25.19 146.12,30.23 
		146.12,35.27 146.12,40.31 146.12,45.35 146.12,50.39 146.12,55.42 146.12,60.46 146.12,65.5 146.12,70.54 146.12,75.58 
		146.12,80.62 146.12,85.66 146.12,90.7 146.12,95.74 146.12,100.77 146.12,105.81 146.12,110.85 146.12,115.89 146.12,120.93 
		146.12,125.97 146.12,131.01 146.12,136.05 146.12,141.09 146.12,146.12 146.12,141.09 146.12,136.05 146.12,131.01 146.12,125.97 
		146.12,120.93 146.12,115.89 146.12,110.85 146.12,105.81 146.12,100.77 146.12,95.74 146.12,90.7 146.12,85.66 146.12,80.62 
		146.12,75.58 146.12,70.54 146.12,65.5 146.12,60.46 146.12,55.42 146.12,50.39 146.12,45.35 146.12,40.31 146.12,35.27 
		146.12,30.23 146.12,25.19 146.12,20.15 146.12,15.11 146.12,10.07 146.12,5.03 	"/>
	<polygon fill="#FFFFFF" points="146.12,0 146.12,0 146.12,5.03 146.12,10.07 146.12,15.11 146.12,20.15 146.12,25.19 146.12,30.23 
		146.12,35.27 146.12,40.31 146.12,45.35 146.12,50.39 146.12,55.42 146.12,60.46 146.12,65.5 146.12,70.54 146.12,75.58 
		146.12,80.62 146.12,85.66 146.12,90.7 146.12,95.74 146.12,100.77 146.12,105.81 146.12,110.85 146.12,115.89 146.12,120.93 
		146.12,125.97 146.12,131.01 146.12,136.05 146.12,141.09 146.12,146.12 146.12,141.09 146.12,136.05 146.12,131.01 146.12,125.97 
		146.12,120.93 146.12,115.89 146.12,110.85 146.12,105.81 146.12,100.77 146.12,95.74 146.12,90.7 146.12,85.66 146.12,80.62 
		146.12,75.58 146.12,70.54 146.12,65.5 146.12,60.46 146.12,55.42 146.12,50.39 146.12,45.35 146.12,40.31 146.12,35.27 
		146.12,30.23 146.12,25.19 146.12,20.15 146.12,15.11 146.12,10.07 146.12,5.03 	"/>
	<polygon fill="#FFFFFF" points="146.12,0 146.12,0 146.12,5.03 146.12,10.07 146.12,15.11 146.12,20.15 146.12,25.19 146.12,30.23 
		146.12,35.27 146.12,40.31 146.12,45.35 146.12,50.39 146.12,55.42 146.12,60.46 146.12,65.5 146.12,70.54 146.12,75.58 
		146.12,80.62 146.12,85.66 146.12,90.7 146.12,95.74 146.12,100.77 146.12,105.81 146.12,110.85 146.12,115.89 146.12,120.93 
		146.12,125.97 146.12,131.01 146.12,136.05 146.12,141.09 146.12,146.12 146.12,141.09 146.12,136.05 146.12,131.01 146.12,125.97 
		146.12,120.93 146.12,115.89 146.12,110.85 146.12,105.81 146.12,100.77 146.12,95.74 146.12,90.7 146.12,85.66 146.12,80.62 
		146.12,75.58 146.12,70.54 146.12,65.5 146.12,60.46 146.12,55.42 146.12,50.39 146.12,45.35 146.12,40.31 146.12,35.27 
		146.12,30.23 146.12,25.19 146.12,20.15 146.12,15.11 146.12,10.07 146.12,5.03 	"/>
	<polygon fill="#FFFFFF" points="146.12,0 146.12,0 146.12,5.03 146.12,10.07 146.12,15.11 146.12,20.15 146.12,25.19 146.12,30.23 
		146.12,35.27 146.12,40.31 146.12,45.35 146.12,50.39 146.12,55.42 146.12,60.46 146.12,65.5 146.12,70.54 146.12,75.58 
		146.12,80.62 146.12,85.66 146.12,90.7 146.12,95.74 146.12,100.77 146.12,105.81 146.12,110.85 146.12,115.89 146.12,120.93 
		146.12,125.97 146.12,131.01 146.12,136.05 146.12,141.09 146.12,146.12 146.12,141.09 146.12,136.05 146.12,131.01 146.12,125.97 
		146.12,120.93 146.12,115.89 146.12,110.85 146.12,105.81 146.12,100.77 146.12,95.74 146.12,90.7 146.12,85.66 146.12,80.62 
		146.12,75.58 146.12,70.54 146.12,65.5 146.12,60.46 146.12,55.42 146.12,50.39 146.12,45.35 146.12,40.31 146.12,35.27 
		146.12,30.23 146.12,25.19 146.12,20.15 146.12,15.11 146.12,10.07 146.12,5.03 	"/>
	<polygon fill="#FFFFFF" points="146.12,0 146.12,0 146.12,5.03 146.12,10.07 146.12,15.11 146.12,20.15 146.12,25.19 146.12,30.23 
		146.12,35.27 146.12,40.31 146.12,45.35 146.12,50.39 146.12,55.42 146.12,60.46 146.12,65.5 146.12,70.54 146.12,75.58 
		146.12,80.62 146.12,85.66 146.12,90.7 146.12,95.74 146.12,100.77 146.12,105.81 146.12,110.85 146.12,115.89 146.12,120.93 
		146.12,125.97 146.12,131.01 146.12,136.05 146.12,141.09 146.12,146.12 146.12,141.09 146.12,136.05 146.12,131.01 146.12,125.97 
		146.12,120.93 146.12,115.89 146.12,110.85 146.12,105.81 146.12,100.77 146.12,95.74 146.12,90.7 146.12,85.66 146.12,80.62 
		146.12,75.58 146.12,70.54 146.12,65.5 146.12,60.46 146.12,55.42 146.12,50.39 146.12,45.35 146.12,40.31 146.12,35.27 
		146.12,30.23 146.12,25.19 146.12,20.15 146.12,15.11 146.12,10.07 146.12,5.03 	"/>
</g>
<text transform="matrix(1 0 0 1 44.1959 140.3214)" fill="#FFFF00" font-family="'Arial-BoldMT'" font-size="30px">JPG</text>
<text transform="matrix(1 0 0 1 29.1666 161.921)" fill="#FFFF00" font-family="'Arial-BoldMT'" font-size="18px">62,937,182</text>
<text transform="matrix(1 0 0 1 45.0358 173.921)" fill="#FFFF00" font-family="'Arial-BoldMT'" font-size="10px">images total</text>
<text transform="matrix(1 0 0 1 56.7033 185.921)" fill="#FFFF00" font-family="'Arial-BoldMT'" font-size="10px">(51.5%)</text>
<text transform="matrix(1 0 0 1 193.032 140.3214)" fill="#FFFF00" font-family="'Arial-BoldMT'" font-size="30px">GIF</text>
<text transform="matrix(1 0 0 1 172.9856 161.921)" fill="#FFFF00" font-family="'Arial-BoldMT'" font-size="18px">56,553,910</text>
<text transform="matrix(1 0 0 1 188.8548 173.921)" fill="#FFFF00" font-family="'Arial-BoldMT'" font-size="10px">images total</text>
<text transform="matrix(1 0 0 1 204.6922 185.921)" fill="#FFFF00" font-family="'Arial-BoldMT'" font-size="10px">(47%)</text>
<text transform="matrix(1 0 0 1 161.9361 29.7767)" fill="#FFFFFF" font-family="'Arial-BoldMT'" font-size="8px">Everything else</text>
<text transform="matrix(1 0 0 1 164.8121 42.7767)" fill="#FFFFFF" font-family="'Arial-BoldMT'" font-size="12px">1,893,142</text>
<text transform="matrix(1 0 0 1 168.1646 52.3763)" fill="#FFFFFF" font-family="'Arial-BoldMT'" font-size="8px">images total</text>
<text transform="matrix(1 0 0 1 179.7232 61.9769)" fill="#FFFFFF" font-family="'Arial-BoldMT'" font-size="8px">(1.5%)</text>
</svg>
